<svg width="32" height="32" viewBox="0 0 32 32" fill="none" xmlns="http://www.w3.org/2000/svg">
<g id="631f46d6d0cf7a2d1a0aa511_Discord.svg">
<path id="Vector" d="M22.7305 10.0445C21.5314 9.49988 20.2626 9.11271 18.9578 8.89319C18.7954 9.17922 18.6035 9.56542 18.4706 9.86576C17.0828 9.66554 15.6722 9.66554 14.2844 9.86576C14.1374 9.53331 13.9723 9.2087 13.7898 8.89319C12.4828 9.11374 11.2118 9.50085 10.0097 10.0445C7.87126 13.0508 6.90807 16.6965 7.29284 20.3282C8.6902 21.3482 10.2587 22.1272 11.9293 22.6309C12.3064 22.1294 12.6398 21.5984 12.926 21.0433C12.3837 20.8497 11.86 20.6105 11.3608 20.3282C11.4937 20.2352 11.6192 20.1351 11.7447 20.035C13.1899 20.7093 14.7734 21.0594 16.3775 21.0594C17.9816 21.0594 19.5651 20.7093 21.0103 20.035C21.1358 20.1351 21.2613 20.2352 21.3942 20.3282C20.8966 20.6133 20.3726 20.8526 19.829 21.0433C20.1099 21.5997 20.441 22.131 20.8183 22.6309C22.4902 22.1301 24.0592 21.3509 25.4548 20.3282C25.8426 16.6953 24.8764 13.0477 22.7305 10.0445ZM13.332 18.2614C12.8672 18.2266 12.4348 18.0172 12.1272 17.6778C11.8196 17.3384 11.6612 16.896 11.6857 16.445C11.7268 16.1382 11.8585 15.8493 12.0648 15.6131C12.2712 15.3769 12.5434 15.2033 12.849 15.1131C13.1546 15.023 13.4806 15.0201 13.7878 15.1048C14.095 15.1895 14.3705 15.3583 14.5813 15.5908C14.792 15.8234 14.9291 16.1098 14.9761 16.4159C15.023 16.7219 14.9779 17.0346 14.8461 17.3164C14.7142 17.5983 14.5013 17.8374 14.2328 18.005C13.9642 18.1726 13.6515 18.2616 13.332 18.2614ZM19.4155 18.2614C18.9587 18.2058 18.5386 17.9906 18.234 17.6561C17.9294 17.3216 17.7613 16.891 17.7613 16.445C17.7613 15.999 17.9294 15.5684 18.234 15.2339C18.5386 14.8994 18.9587 14.6842 19.4155 14.6286C19.6475 14.6412 19.8744 14.6985 20.0833 14.797C20.2921 14.8956 20.4786 15.0334 20.6318 15.2025C20.7851 15.3716 20.902 15.5685 20.9759 15.7819C21.0497 15.9952 21.079 16.2206 21.062 16.445C21.0903 16.8969 20.9332 17.3413 20.6249 17.6816C20.3165 18.0218 19.8818 18.2302 19.4155 18.2614Z" fill="black" fill-opacity="0.75"/>
</g>
</svg>
