<svg width="32" height="32" viewBox="0 0 32 32" fill="none" xmlns="http://www.w3.org/2000/svg">
<g id="631f46d6d0cf7a0d8b0aa510_Twitter.svg">
<path id="Vector" d="M22.9633 12.3128C22.9736 12.4612 22.9736 12.6109 22.9736 12.7606C22.9736 17.3451 19.484 22.6309 13.1031 22.6309C11.2167 22.6337 9.36934 22.0927 7.78223 21.073C8.05578 21.1056 8.33105 21.1221 8.60655 21.1225C10.1697 21.1247 11.6881 20.6006 12.917 19.6346C12.193 19.6213 11.4913 19.3819 10.9101 18.9499C10.329 18.5179 9.8975 17.915 9.67609 17.2256C10.1958 17.326 10.7316 17.3058 11.2422 17.1665C10.4573 17.0078 9.7513 16.5826 9.24398 15.9629C8.73671 15.3432 8.45933 14.5671 8.45887 13.7663V13.7223C8.94135 13.9909 9.4813 14.1398 10.0333 14.1564C9.29893 13.6658 8.77907 12.9138 8.57965 12.0534C8.38016 11.193 8.51605 10.289 8.95961 9.52528C9.83058 10.5969 10.9172 11.4735 12.1489 12.098C13.3806 12.7224 14.7299 13.0809 16.1091 13.1501C15.9367 12.4065 16.014 11.6268 16.3293 10.9315C16.6446 10.2363 17.1802 9.66432 17.8532 9.3041C18.5262 8.94383 19.2993 8.8155 20.0526 8.93879C20.806 9.06209 21.4977 9.4302 22.0208 9.98618C22.7975 9.83295 23.5423 9.54812 24.2231 9.14406C23.9643 9.94731 23.4223 10.6292 22.6982 11.0626C23.3857 10.9813 24.0572 10.7975 24.6902 10.5172C24.2255 11.2133 23.6407 11.8213 22.9633 12.3128Z" fill="black" fill-opacity="0.75"/>
</g>
</svg>
